# xmcd
#
# Track frame offsets:
#	150
#	13106
#	29740
#	44638
#	62277
#	84183
#	108199
#	127097
#	146606
#	163254
#	175854
#	201649
#	218831
#
# Disc length: 3267 seconds
#
# Revision: 1
# Processed by: cddbd v1.5.2PL0 Copyright (c) Steve Scherf et al.
# Submitted via: audiograbber 1.83.01
#
DISCID=be0cc10d
DTITLE=Kenya Walker - Alligator Purse
DYEAR=1999
DGENRE=Singer/Songwriter
TTITLE0=Red headed stepchild
TTITLE1=In the spring
TTITLE2=Alligator purse
TTITLE3=Just your education
TTITLE4=Crazy in Alabama
TTITLE5=Talking trash
TTITLE6=Normal family
TTITLE7=Under the influence
TTITLE8=Spider webs
TTITLE9=Without you
TTITLE10=Disconnect the world
TTITLE11=Daddy´s little girl
TTITLE12=Bonus track
EXTD=Produced by Don Henry
EXTT0=
EXTT1=
EXTT2=
EXTT3=
EXTT4=
EXTT5=
EXTT6=
EXTT7=
EXTT8=
EXTT9=
EXTT10=
EXTT11=
EXTT12=
PLAYORDER=
